<?xml version="1.0" standalone="no"?>
<!DOCTYPE svg PUBLIC "-//W3C//DTD SVG 20010904//EN"
 "http://www.w3.org/TR/2001/REC-SVG-20010904/DTD/svg10.dtd">
<svg version="1.0" xmlns="http://www.w3.org/2000/svg"
 width="1024.000000pt" height="1024.000000pt" viewBox="0 0 1024.000000 1024.000000"
 preserveAspectRatio="xMidYMid meet">

<g transform="translate(0.000000,1024.000000) scale(0.100000,-0.100000)"
fill="#000000" stroke="none">
<path d="M4450 9633 c0 -5 35 -21 78 -37 89 -33 325 -148 362 -176 l25 -19
-40 9 c-89 20 -322 40 -520 46 -226 7 -429 -8 -650 -47 -314 -57 -666 -176
-845 -287 -69 -43 -140 -100 -140 -113 0 -6 4 -8 8 -5 4 3 62 12 127 20 181
24 660 17 600 -9 -98 -42 -137 -62 -255 -132 -481 -288 -813 -667 -983 -1123
-44 -120 -89 -350 -68 -350 4 0 36 30 71 66 36 36 110 105 165 154 l100 87 -3
-198 c-7 -360 34 -628 199 -1279 43 -173 79 -320 79 -326 0 -9 -9 -10 -37 -2
-58 16 -149 2 -220 -32 -109 -54 -191 -170 -230 -326 -23 -96 -23 -337 0 -457
59 -298 223 -556 450 -707 121 -81 264 -113 387 -87 41 9 84 19 95 22 18 5 24
-8 64 -147 129 -452 293 -711 631 -1001 58 -49 106 -93 108 -97 2 -4 -33 -37
-77 -74 -253 -209 -486 -471 -635 -716 -32 -52 -65 -103 -73 -112 -9 -9 -45
-27 -82 -39 -89 -30 -262 -101 -456 -189 -88 -40 -245 -110 -348 -156 -219
-98 -354 -169 -438 -230 -78 -58 -213 -188 -240 -230 l-21 -34 21 -29 c38 -53
56 -48 145 38 127 122 195 174 302 228 95 49 597 278 829 378 61 26 136 60
168 76 31 16 57 27 57 24 0 -24 -44 -83 -74 -99 -32 -17 -40 -36 -15 -36 6 0
8 4 4 9 -3 6 4 15 15 21 18 10 19 9 11 -12 -6 -13 -36 -104 -67 -203 -32 -99
-61 -185 -66 -191 -5 -7 -55 -29 -111 -49 -56 -21 -136 -52 -177 -71 -165 -72
-362 -154 -373 -154 -7 0 -43 -15 -82 -34 -109 -54 -102 -56 -165 66 -30 59
-58 110 -62 113 -3 4 -37 -22 -75 -58 -37 -35 -81 -76 -97 -91 -16 -14 -25
-26 -19 -26 5 0 19 9 32 21 l22 21 57 -38 c31 -21 73 -53 92 -71 41 -38 124
-70 202 -78 57 -7 70 -3 423 124 77 27 141 48 143 46 2 -2 -1 -50 -7 -107 -24
-230 -25 -238 -9 -238 12 0 17 30 27 147 18 219 16 212 68 235 25 11 46 18 49
16 2 -3 -10 -67 -27 -143 -31 -134 -31 -140 -14 -170 10 -20 15 -48 13 -75 -3
-42 -3 -42 41 -56 l44 -13 85 50 c46 28 91 48 98 45 8 -3 13 0 11 7 -1 8 8 11
26 9 15 -1 27 2 27 8 0 6 -6 8 -12 5 -7 -4 -4 1 7 9 17 14 20 15 28 1 4 -8 6
-19 3 -24 -3 -5 0 -14 8 -20 11 -9 15 -9 19 1 3 7 6 2 7 -12 l1 -25 11 23 c6
12 14 22 18 22 4 0 11 -10 15 -22 l8 -23 4 23 c3 13 10 21 16 19 7 -3 11 -9
10 -15 -1 -5 4 -13 13 -16 8 -3 12 -2 9 4 -8 14 41 13 67 -1 16 -9 19 -8 13 3
-3 7 -1 6 7 -3 7 -9 19 -14 26 -12 8 3 10 -1 5 -14 -7 -17 -6 -17 11 -1 16 16
24 20 42 17 4 0 11 5 15 13 7 11 9 11 9 0 0 -7 6 -20 14 -28 8 -8 18 -34 22
-59 7 -49 7 -49 32 -36 46 25 93 41 101 36 5 -3 11 -1 13 4 1 5 16 13 32 17
l29 7 -6 -70 c-10 -102 -17 -97 190 -122 67 -8 67 -8 21 50 -42 54 -37 91 34
291 39 111 61 190 62 220 1 42 -3 51 -39 88 -99 102 -250 120 -489 59 -82 -21
-310 -109 -455 -175 -99 -45 -108 -41 -91 42 24 116 90 354 136 485 163 467
349 753 699 1069 71 65 131 117 133 116 10 -11 -26 -59 -109 -143 -52 -54
-120 -127 -150 -163 -56 -68 -207 -278 -228 -317 -12 -23 -11 -23 36 4 26 14
62 36 78 48 86 62 148 67 187 15 22 -30 48 -159 48 -238 0 -98 27 -176 177
-517 115 -260 145 -324 159 -336 23 -19 27 -67 9 -117 l-18 -48 79 -112 c44
-62 111 -162 149 -223 104 -165 89 -152 188 -157 48 -2 87 -2 87 0 0 3 -43 96
-95 207 -53 111 -92 207 -89 213 4 6 3 9 -2 5 -7 -4 -47 74 -111 221 -3 8 11
5 40 -9 25 -13 43 -27 40 -32 -4 -6 1 -8 10 -4 10 3 17 3 17 -1 0 -4 8 -8 18
-9 41 -2 162 -39 155 -47 -4 -5 -3 -6 3 -3 6 3 39 1 75 -4 63 -10 264 -29 304
-29 39 0 231 19 285 28 30 6 78 9 105 7 44 -3 46 -3 15 4 -25 6 -29 9 -12 10
13 0 33 6 44 12 11 6 36 11 54 11 19 0 34 4 34 9 0 5 12 12 26 15 14 4 42 15
62 24 21 10 39 16 41 14 2 -2 -8 -33 -24 -69 -24 -57 -29 -64 -44 -53 -14 11
-14 11 -3 -3 14 -19 8 -35 -95 -251 -37 -78 -70 -135 -76 -131 -6 3 -7 1 -3
-5 3 -6 -5 -35 -18 -66 l-24 -55 -69 -4 c-38 -2 -12 -4 62 -5 189 -3 199 0
233 62 67 121 149 257 213 352 45 68 47 72 37 110 -10 37 -8 46 22 105 31 62
101 222 190 439 24 58 47 110 52 116 5 7 21 49 37 95 l28 84 7 -90 c11 -136
16 -127 9 15 -12 236 -8 319 16 382 24 61 83 123 108 114 8 -3 23 -6 33 -6 10
0 62 -29 114 -65 53 -35 96 -62 96 -59 0 2 -31 51 -70 108 -120 179 -324 424
-403 484 -16 12 -27 28 -25 37 7 38 342 -290 476 -466 146 -193 221 -339 346
-673 59 -156 156 -514 156 -573 0 -19 0 -19 -190 61 -169 72 -360 137 -457
156 -34 7 -104 11 -156 8 -110 -5 -183 -34 -241 -98 -52 -58 -50 -111 8 -263
25 -63 54 -146 66 -184 25 -82 19 -107 -38 -166 l-37 -38 45 6 c64 10 213 35
226 40 7 2 8 21 4 54 -4 32 -3 51 4 51 24 0 146 -45 147 -54 1 -18 39 118 39
140 0 12 6 24 14 27 10 4 12 0 9 -14 -6 -22 0 -23 28 -9 15 8 19 7 19 -4 0
-10 6 -13 16 -9 13 5 13 7 2 14 -9 6 -2 9 19 9 17 0 34 6 36 13 4 9 6 9 6 0 1
-16 37 -17 46 -3 4 6 16 9 28 8 12 -2 23 1 24 6 2 11 24 26 41 26 6 0 13 -10
13 -22 1 -17 3 -18 6 -6 5 20 37 32 76 30 15 -1 27 2 27 8 0 5 -9 10 -20 10
-11 0 -20 5 -20 10 0 16 19 11 40 -10 12 -12 25 -18 30 -15 5 3 58 -19 117
-49 104 -53 110 -55 151 -44 46 12 48 14 27 42 -20 27 -19 43 5 68 27 29 26
74 -4 195 -13 54 -27 110 -30 125 l-6 26 39 -19 c44 -21 46 -27 56 -114 3 -33
13 -95 21 -139 8 -43 14 -94 14 -113 0 -23 4 -33 12 -31 16 6 13 55 -13 215
-23 146 -23 143 -6 143 8 0 128 -43 268 -95 285 -107 281 -107 421 -59 57 19
78 33 115 74 48 54 104 85 138 76 11 -3 -12 25 -52 62 -39 37 -75 78 -79 91
l-7 25 -18 -22 c-10 -13 -27 -46 -38 -75 -25 -68 -71 -167 -77 -167 -16 0 -81
34 -96 50 -10 10 -35 22 -55 26 -21 4 -82 29 -135 55 -54 27 -105 49 -114 49
-10 0 -40 11 -68 23 -63 30 -198 81 -251 97 -22 7 -59 22 -83 34 l-43 21 -65
190 c-36 105 -68 198 -71 207 -5 17 -3 17 32 2 20 -8 39 -13 41 -11 3 2 -18
13 -45 25 -34 14 -55 30 -66 52 -16 31 -16 32 4 25 11 -3 101 -43 198 -87 265
-120 363 -164 518 -230 261 -112 382 -180 517 -293 68 -56 132 -112 142 -124
25 -27 57 -27 84 2 36 38 27 60 -54 146 -152 162 -315 257 -795 466 -134 59
-287 126 -339 150 -119 54 -325 135 -342 135 -8 0 -33 33 -57 72 -173 285
-358 500 -620 723 l-142 120 34 30 c18 17 82 73 141 125 302 266 480 571 597
1027 l21 82 28 -14 c16 -8 60 -20 99 -27 168 -29 347 39 500 190 151 149 240
305 303 535 26 97 31 134 35 273 6 187 -9 288 -58 392 -39 81 -121 165 -196
200 -51 23 -70 27 -154 27 l-96 0 9 30 c5 16 33 125 63 240 168 655 223 1098
174 1424 -5 35 -8 65 -7 67 2 1 37 -53 78 -121 41 -69 79 -125 84 -125 13 0
-2 106 -30 211 -86 321 -379 695 -650 829 -45 23 -109 46 -143 52 -33 6 -61
15 -61 19 0 9 47 67 75 92 11 10 45 30 75 45 50 24 66 27 168 27 l114 0 -39
34 c-52 46 -148 90 -223 102 -112 18 -202 -9 -257 -76 l-30 -36 -52 70 c-75
101 -142 172 -229 243 -108 86 -270 192 -384 249 -321 161 -804 298 -1198 339
-111 11 -450 13 -450 3z m-1395 -1012 c-11 -10 -66 -59 -122 -110 -133 -119
-319 -335 -418 -486 -95 -145 -106 -158 -67 -80 108 217 310 453 547 639 71
56 96 71 60 37z m4364 -673 c11 -24 30 -101 43 -173 20 -114 22 -165 23 -410
0 -323 -13 -436 -90 -786 -37 -169 -159 -640 -194 -754 -19 -63 -10 14 24 195
48 260 110 633 139 845 59 428 66 686 28 1053 -4 39 -5 72 -1 72 4 0 16 -19
28 -42z m-853 -90 c-1 -57 3 -69 42 -133 24 -38 97 -177 162 -308 l120 -237 0
-151 c0 -83 -5 -237 -11 -342 l-10 -192 34 -90 c46 -120 110 -320 137 -425 33
-127 25 -241 -35 -500 -26 -113 -52 -227 -58 -254 -9 -44 -12 -47 -24 -31 -11
16 -10 22 5 39 14 18 15 19 0 8 -11 -9 -18 -10 -23 -2 -3 5 -2 10 3 10 5 0 12
19 16 43 4 23 9 53 12 67 15 71 -27 -37 -117 -306 -94 -280 -182 -505 -200
-512 -5 -2 -9 -8 -9 -13 0 -5 -34 -83 -76 -172 -42 -89 -87 -187 -101 -217
-47 -100 -197 -338 -214 -340 -3 0 -7 22 -8 49 -5 140 -80 262 -201 325 -52
28 -75 35 -83 27 -8 -8 -3 -11 17 -11 23 0 26 -3 17 -13 -6 -8 -8 -17 -4 -20
3 -4 -2 -26 -13 -49 -17 -39 -19 -40 -25 -17 -5 21 -7 19 -18 -19 -10 -36 -16
-43 -32 -39 -11 3 -17 1 -13 -5 4 -6 0 -14 -7 -19 -7 -4 -10 -12 -5 -16 5 -4
11 -2 13 5 7 20 23 14 23 -9 0 -12 -8 -23 -20 -26 -11 -3 -20 -13 -20 -22 0
-14 -2 -14 -10 -1 -5 8 -10 11 -10 5 0 -5 -5 -3 -10 5 -8 13 -10 13 -10 -1 0
-9 7 -19 15 -23 34 -13 55 -68 55 -148 0 -84 -17 -143 -66 -225 -16 -27 -27
-52 -25 -58 1 -5 -1 -7 -5 -2 -10 10 -65 -43 -57 -56 3 -6 1 -7 -5 -3 -6 3
-26 -3 -45 -14 -33 -20 -106 -44 -157 -53 -21 -4 -20 -4 7 -6 17 0 43 3 58 9
17 7 24 7 20 0 -3 -6 -12 -10 -20 -10 -8 0 -16 -16 -20 -40 -4 -25 -12 -40
-21 -40 -8 0 -14 -9 -14 -20 0 -18 -6 -21 -42 -20 -74 1 -118 -10 -118 -30 0
-13 -10 -20 -37 -23 -59 -8 -323 -6 -323 2 0 17 -54 31 -118 32 -59 0 -167 15
-134 18 6 0 12 8 12 16 0 11 -11 15 -40 15 -22 0 -40 5 -40 10 0 6 -18 10 -40
10 -27 0 -40 4 -40 14 0 7 -13 16 -30 20 -18 3 -30 12 -30 21 0 8 -7 15 -16
15 -13 0 -14 3 -5 14 9 11 5 16 -18 26 -16 6 -34 9 -40 6 -5 -4 -13 -1 -17 5
-5 8 -2 10 7 5 8 -4 3 1 -11 12 -13 11 -29 18 -34 15 -5 -3 -6 -2 -3 4 7 11
-46 66 -56 58 -4 -3 -5 -2 -3 1 2 3 -12 31 -30 62 -74 122 -83 272 -21 334
l22 22 -27 -17 c-23 -14 -27 -14 -32 -1 -3 8 -2 13 3 10 11 -7 23 22 15 35 -3
5 2 9 10 9 21 0 20 9 -3 29 -10 9 -20 25 -22 36 -3 14 -14 21 -37 23 -39 4
-42 17 -4 27 26 7 26 8 5 17 -22 11 -38 74 -20 85 5 3 4 9 -3 13 -6 4 13 14
45 25 31 9 54 19 52 22 -8 7 -157 -46 -203 -73 -96 -57 -174 -181 -174 -280 0
-24 -2 -44 -5 -44 -15 0 -98 105 -144 183 -56 96 -153 292 -216 437 -21 47
-48 110 -62 140 -83 182 -166 392 -210 535 -24 77 -47 143 -51 147 -4 4 -7
-52 -6 -125 0 -132 -5 -136 -26 -17 -5 30 -29 141 -54 246 -24 105 -54 252
-66 327 -21 132 -21 139 -5 219 21 105 94 340 145 468 l40 100 -15 227 c-8
125 -15 283 -15 352 l0 126 36 45 c19 25 74 84 121 133 99 100 77 94 288 72
77 -8 222 -18 323 -21 l184 -7 -95 -38 c-52 -20 -132 -60 -178 -89 -80 -49
-224 -159 -217 -165 2 -1 55 11 118 27 160 40 403 82 682 118 131 17 316 42
410 56 571 83 1226 302 1571 523 51 33 92 60 93 60 0 1 0 -27 0 -61z m-3796
-1085 c16 -115 101 -607 140 -802 16 -85 28 -156 26 -158 -6 -6 -5 -10 -117
432 -60 239 -101 423 -102 456 -1 32 -5 52 -8 47 -4 -5 -9 2 -11 16 -4 18 -2
24 6 18 6 -5 20 -8 31 -8 17 1 20 7 17 44 -6 73 5 46 18 -45z m2 -997 c53 -25
113 -87 143 -145 34 -69 68 -189 115 -414 22 -106 51 -244 64 -307 l24 -115
-29 35 c-41 49 -83 141 -136 299 -86 260 -186 421 -294 475 -29 14 -69 26 -88
26 -52 -1 -112 -31 -150 -76 l-32 -39 7 30 c23 99 123 222 197 245 46 14 136
7 179 -14z m4787 0 c71 -37 145 -140 157 -219 4 -28 3 -29 -7 -11 -14 28 -85
72 -127 80 -52 10 -106 -12 -167 -68 -107 -98 -152 -179 -246 -445 -37 -105
-73 -202 -80 -215 -21 -39 -79 -112 -79 -98 0 7 24 123 54 259 30 135 60 275
66 310 14 80 56 224 76 263 36 69 113 136 184 159 37 12 132 4 169 -15z
m-5161 -289 c-1 -2 2 -10 8 -18 7 -8 15 -36 18 -62 12 -87 26 -151 53 -237 15
-47 26 -89 25 -93 -2 -5 2 -6 8 -2 5 3 10 12 10 19 0 25 220 286 241 286 4 0
21 -24 37 -54 l29 -55 -44 -43 c-146 -143 -143 -298 9 -479 44 -53 116 -107
147 -112 12 -2 27 -9 33 -15 16 -16 25 -15 25 2 0 8 -6 12 -15 8 -11 -4 -13
-1 -7 7 4 8 2 17 -6 23 -10 7 -9 8 6 3 11 -4 56 -10 99 -14 l79 -6 13 -50 c7
-27 16 -73 19 -101 l7 -51 -67 -13 c-162 -30 -287 14 -430 151 -196 189 -299
414 -312 685 -5 112 2 242 14 231 2 -3 3 -7 1 -10z m5340 -146 c6 -196 -22
-330 -105 -496 -82 -163 -188 -285 -316 -363 -99 -59 -226 -77 -322 -44 -59
20 -65 37 -39 118 13 41 24 59 45 70 31 15 84 20 60 5 -11 -7 -10 -11 5 -20
17 -9 17 -10 -6 -11 -14 -1 -19 -4 -12 -7 18 -7 98 15 147 41 71 37 144 97
145 120 0 5 -9 -3 -21 -18 -11 -14 -25 -24 -30 -20 -8 5 11 24 66 64 19 14 19
14 5 -4 -9 -12 -10 -17 -3 -12 7 4 18 16 24 28 9 16 8 19 -3 13 -7 -4 -3 2 8
12 48 41 75 144 61 233 -10 69 -44 127 -103 178 l-47 40 33 56 c35 63 27 63
103 -4 22 -19 56 -60 77 -90 46 -67 81 -100 87 -82 3 6 13 12 23 12 19 0 24
16 60 173 11 48 20 98 20 112 0 13 3 31 6 40 15 39 29 -23 32 -144z m-4501
-363 c-3 -7 -5 -2 -5 12 0 14 2 19 5 13 2 -7 2 -19 0 -25z m27 -84 c4 -36 13
-85 21 -107 8 -23 15 -51 15 -63 0 -11 8 -38 18 -60 11 -21 29 -77 41 -124
179 -674 311 -915 685 -1244 180 -158 413 -334 528 -398 160 -88 314 -128 500
-128 248 0 451 80 720 285 281 214 537 461 647 625 119 178 204 377 276 650
20 74 42 155 50 180 7 25 19 65 26 90 11 43 12 44 19 18 8 -29 -7 -118 -19
-118 -5 0 -6 -10 -4 -23 6 -30 -49 -264 -93 -397 -130 -391 -331 -636 -864
-1052 -230 -179 -315 -225 -476 -257 -139 -27 -270 -34 -420 -21 -154 13 -252
38 -358 91 -90 45 -128 71 -311 213 -528 409 -686 610 -836 1066 -42 131 -74
255 -110 434 -28 137 -57 277 -64 310 -17 70 -19 96 -6 96 4 0 11 -30 15 -66z
m3597 -65 l-9 -34 -1 31 c-1 17 2 34 6 37 12 13 14 -1 4 -34z m-4047 -78 c-3
-3 -15 6 -27 18 l-22 24 27 -19 c14 -10 24 -21 22 -23z m40 -26 c11 -8 17 -17
14 -21 -7 -6 -48 17 -48 28 0 12 13 9 34 -7z m41 -25 c3 -5 1 -10 -4 -10 -6 0
-11 5 -11 10 0 6 2 10 4 10 3 0 8 -4 11 -10z m4330 -28 c-3 -3 -11 0 -18 7 -9
10 -8 11 6 5 10 -3 15 -9 12 -12z m-95 -22 c-8 -5 -24 -9 -35 -9 -16 1 -16 2
5 9 35 11 48 11 30 0z m-1122 -486 c37 -18 41 -24 10 -16 -14 3 -19 2 -14 -6
4 -7 2 -12 -4 -12 -7 0 -10 7 -7 15 4 8 2 17 -3 20 -5 3 -11 -5 -13 -17 -4
-20 -4 -19 -6 5 -1 32 -3 31 37 11z m-1831 -116 c-3 -7 -5 -2 -5 12 0 14 2 19
5 13 2 -7 2 -19 0 -25z m2183 -128 c0 -5 -2 -10 -4 -10 -3 0 -8 5 -11 10 -3 6
-1 10 4 10 6 0 11 -4 11 -10z m-2143 -302 c-3 -8 -6 -5 -6 6 -1 11 2 17 5 13
3 -3 4 -12 1 -19z m290 -234 c-3 -3 -12 -4 -19 -1 -8 3 -5 6 6 6 11 1 17 -2
13 -5z m1504 -1049 c18 -53 23 -90 22 -150 -1 -87 -34 -269 -57 -314 -37 -71
-202 -189 -346 -248 -87 -35 -268 -80 -375 -94 -210 -26 -496 3 -680 68 -111
40 -260 122 -334 185 -78 65 -96 100 -126 248 -25 117 -24 207 3 320 16 70 24
140 28 270 l6 175 72 -70 c154 -151 334 -292 456 -360 82 -46 161 -72 280 -92
81 -14 108 -14 185 -4 233 33 400 130 692 404 38 35 67 55 74 51 8 -4 9 -3 5
5 -5 7 6 27 26 49 l33 37 6 -205 c5 -180 9 -214 30 -275z m-291 -898 l0 -113
-87 -31 c-185 -66 -347 -93 -567 -93 -152 0 -334 19 -419 44 -43 12 -47 19
-88 166 -12 41 -23 80 -26 86 -3 8 22 4 72 -11 250 -77 602 -81 880 -10 55 14
110 28 121 29 12 2 30 8 40 14 11 5 25 7 33 4 8 -2 11 0 7 6 -5 9 7 19 27 21
4 1 7 -50 7 -112z m-2984 -93 c12 5 15 4 9 -2 -5 -5 -57 -26 -115 -45 -58 -20
-143 -52 -190 -71 -46 -20 -89 -36 -95 -36 -13 0 91 49 170 80 33 13 68 32 79
43 10 10 26 17 37 14 11 -3 17 -1 14 4 -8 12 58 28 66 16 4 -6 15 -7 25 -3z
m574 -399 c7 -9 8 -15 2 -15 -5 0 -12 7 -16 15 -3 8 -4 15 -2 15 2 0 9 -7 16
-15z m115 -25 c3 -5 1 -10 -4 -10 -6 0 -11 5 -11 10 0 6 2 10 4 10 3 0 8 -4
11 -10z m3165 0 c0 -5 -5 -10 -11 -10 -5 0 -7 5 -4 10 3 6 8 10 11 10 2 0 4
-4 4 -10z m164 -6 c3 -8 2 -12 -4 -9 -6 3 -10 10 -10 16 0 14 7 11 14 -7z"/>
<path d="M3815 6359 c-218 -29 -372 -108 -496 -255 -49 -58 -128 -199 -117
-210 3 -3 33 8 67 25 84 43 188 75 311 97 87 16 155 19 395 19 304 0 471 -15
627 -54 l70 -18 -5 31 c-9 57 -66 190 -108 255 -49 74 -86 95 -195 111 -81 11
-462 11 -549 -1z"/>
<path d="M5743 6356 c-115 -22 -150 -52 -218 -186 -27 -53 -75 -183 -75 -203
0 -5 10 -6 23 -2 58 18 141 36 232 52 129 22 655 25 780 5 126 -21 243 -51
338 -89 48 -20 90 -33 94 -30 10 11 -53 131 -96 182 -103 125 -237 209 -399
252 -90 24 -116 26 -352 29 -186 2 -274 0 -327 -10z"/>
<path d="M3952 5969 c-119 -18 -303 -109 -372 -185 l-25 -28 39 23 c60 34 146
68 232 92 95 25 295 30 389 10 86 -19 207 -68 255 -102 l42 -31 -18 33 c-85
150 -296 223 -542 188z"/>
<path d="M5962 5969 c-113 -11 -210 -57 -281 -135 -49 -53 -84 -103 -64 -91 6
4 33 22 61 41 156 104 410 143 606 91 33 -9 95 -33 139 -55 61 -30 74 -34 60
-17 -20 22 -9 18 42 -17 59 -40 5 13 -61 60 -143 102 -304 142 -502 123z"/>
<path d="M3891 5839 c-179 -27 -279 -91 -481 -309 l-104 -111 60 6 59 6 35
-57 c38 -63 141 -174 160 -174 7 0 2 9 -11 20 -32 26 -15 25 30 -2 l36 -22
-43 48 c-24 26 -60 82 -80 123 l-36 77 63 58 c52 48 160 128 173 128 2 0 3
-53 4 -118 0 -138 17 -194 88 -283 63 -81 131 -113 240 -113 65 -1 90 4 128
22 53 26 107 82 138 143 42 81 63 243 40 306 -17 46 120 -103 158 -172 l32
-60 -6 45 c-4 25 -13 62 -21 84 -16 49 -16 51 2 36 50 -41 -29 111 -94 182
-53 58 -120 95 -223 122 -73 19 -266 27 -347 15z m58 -213 c28 -15 51 -53 51
-85 0 -25 -37 -71 -68 -82 -33 -13 -86 5 -106 36 -54 82 35 176 123 131z"/>
<path d="M5948 5835 c-101 -17 -143 -31 -205 -71 -63 -40 -126 -118 -165 -201
-33 -73 -36 -90 -8 -48 24 36 25 31 5 -26 -18 -50 -35 -119 -29 -119 2 0 12
17 23 38 29 54 102 143 148 180 l41 32 -15 -43 c-21 -58 -12 -184 18 -262 30
-81 114 -165 184 -186 180 -51 339 37 400 224 24 74 27 96 23 185 l-3 101 35
-22 c56 -34 169 -126 186 -151 9 -15 13 -33 8 -50 -9 -38 -75 -136 -119 -179
-41 -40 -39 -48 3 -19 48 33 58 34 22 2 -27 -25 -29 -29 -10 -19 39 19 135
115 176 175 l37 53 64 -6 65 -6 -133 137 c-145 150 -241 222 -341 255 -124 41
-267 50 -410 26z m-4 -209 c65 -27 68 -112 5 -154 -95 -65 -197 63 -111 139
36 32 57 35 106 15z"/>
<path d="M4660 4546 c0 -2 -4 -27 -10 -56 -8 -44 -7 -59 9 -96 11 -24 30 -54
43 -67 13 -13 29 -35 37 -50 25 -47 133 -151 200 -191 43 -26 80 -41 112 -44
43 -4 55 0 123 42 71 45 206 174 206 197 0 6 17 28 39 49 49 48 66 96 55 158
l-8 47 -6 -50 -5 -50 -40 5 c-70 8 -128 4 -205 -14 -94 -23 -224 -23 -315 -2
-109 26 -110 26 -159 17 -43 -8 -48 -7 -63 15 -10 17 -13 35 -9 59 4 19 4 35
1 35 -3 0 -5 -2 -5 -4z m157 -237 c40 -18 45 -22 29 -28 -21 -8 -93 13 -113
32 -22 22 31 19 84 -4z"/>
<path d="M4216 4151 c-4 -7 -5 -15 -2 -18 9 -9 19 4 14 18 -4 11 -6 11 -12 0z"/>
<path d="M5745 3936 c-34 -27 -94 -49 -183 -67 -67 -14 -86 -31 -24 -23 29 4
33 3 20 -6 -24 -15 -233 -43 -413 -55 -189 -13 -635 33 -530 54 25 5 11 11
-80 34 -60 15 -122 37 -137 47 -33 24 -44 25 -52 5 -17 -45 203 -131 402 -159
145 -21 434 -21 585 -1 131 17 260 52 362 97 88 40 101 51 89 77 -9 20 -9 20
-39 -3z"/>
<path d="M5678 3943 c7 -3 16 -2 19 1 4 3 -2 6 -13 5 -11 0 -14 -3 -6 -6z"/>
<path d="M5408 3569 c-58 -30 -193 -59 -309 -66 -130 -7 -246 9 -348 48 -41
16 -76 27 -78 25 -8 -7 63 -100 105 -136 72 -64 152 -84 315 -78 150 6 211 26
279 91 36 35 97 137 81 137 -5 -1 -25 -10 -45 -21z"/>
<path d="M4548 3373 c7 -3 16 -2 19 1 4 3 -2 6 -13 5 -11 0 -14 -3 -6 -6z"/>
<path d="M4588 3363 c7 -3 16 -2 19 1 4 3 -2 6 -13 5 -11 0 -14 -3 -6 -6z"/>
<path d="M4658 3353 c12 -2 32 -2 45 0 12 2 2 4 -23 4 -25 0 -35 -2 -22 -4z"/>
<path d="M5398 3353 c18 -2 45 -2 60 0 15 2 0 4 -33 4 -33 0 -45 -2 -27 -4z"/>
<path d="M5692 1460 c0 -14 2 -19 5 -12 2 6 2 18 0 25 -3 6 -5 1 -5 -13z"/>
<path d="M2960 1850 c-9 -6 -10 -10 -3 -10 6 0 15 5 18 10 8 12 4 12 -15 0z"/>
<path d="M2815 1785 c-69 -32 -70 -32 -44 -45 22 -10 33 -9 72 9 25 12 51 21
56 21 14 0 13 11 -2 31 -12 16 -19 14 -82 -16z"/>
<path d="M7451 1716 c-10 -12 3 -22 83 -60 53 -25 100 -46 105 -46 12 0 23 32
14 41 -8 7 -177 79 -186 79 -3 0 -10 -6 -16 -14z"/>
<path d="M2602 1689 c-41 -18 -61 -33 -56 -40 5 -9 -1 -10 -22 -5 -18 4 -24 3
-16 -2 11 -7 10 -11 -4 -16 -9 -3 -14 -9 -11 -12 8 -8 77 26 77 38 0 6 7 7 17
4 9 -4 40 3 69 15 42 18 51 25 43 36 -15 18 -24 16 -97 -18z"/>
<path d="M2445 1620 c-3 -5 -2 -10 4 -10 5 0 13 5 16 10 3 6 2 10 -4 10 -5 0
-13 -4 -16 -10z"/>
<path d="M7750 1582 c0 -11 11 -24 25 -30 33 -15 32 -16 38 8 6 22 -8 28 -16
8 -4 -8 -6 -7 -6 3 -1 9 -8 20 -17 23 -23 9 -24 8 -24 -12z"/>
<path d="M2330 1570 c-8 -5 -10 -10 -5 -10 6 0 17 5 25 10 8 5 11 10 5 10 -5
0 -17 -5 -25 -10z"/>
<path d="M2290 1550 c-9 -6 -10 -10 -3 -10 6 0 15 5 18 10 8 12 4 12 -15 0z"/>
<path d="M7829 1543 c-10 -11 -10 -14 -1 -9 6 4 12 3 12 -3 0 -6 7 -7 17 -4
12 5 14 3 8 -7 -5 -9 -4 -11 3 -6 13 8 92 -13 92 -24 0 -4 7 -7 15 -7 29 0 15
13 -50 45 -76 37 -78 37 -96 15z"/>
<path d="M7981 1436 c-14 -28 -25 -57 -24 -63 0 -7 -2 -11 -6 -9 -4 3 -19 -15
-33 -38 -25 -41 -25 -43 -7 -54 16 -10 19 -9 19 8 0 30 18 24 22 -7 3 -28 4
-27 24 12 12 22 27 61 34 86 l14 46 43 -3 c24 -1 43 1 43 5 0 10 -54 49 -82
60 -21 8 -26 3 -47 -43z m-8 -136 c-3 -11 -7 -20 -9 -20 -2 0 -4 9 -4 20 0 11
4 20 9 20 5 0 7 -9 4 -20z"/>
<path d="M2097 1454 c-15 -8 -25 -19 -22 -24 3 -6 -1 -7 -10 -3 -15 5 -15 3
-4 -15 7 -11 19 -18 27 -14 11 4 13 -1 8 -19 -3 -13 -3 -18 0 -11 11 23 23 12
65 -63 39 -67 59 -90 59 -66 0 21 -25 78 -42 98 -24 26 -15 51 10 31 15 -12
16 -11 3 4 -7 10 -18 15 -24 11 -6 -3 -7 -1 -3 5 8 13 -19 82 -31 82 -4 -1
-21 -8 -36 -16z"/>
<path d="M3392 1409 c-24 -12 -41 -23 -38 -26 2 -2 26 7 53 21 58 30 46 35
-15 5z"/>
<path d="M2210 1336 c0 -2 8 -10 18 -17 15 -13 16 -12 3 4 -13 16 -21 21 -21
13z"/>
<path d="M2246 1287 c3 -10 9 -15 12 -12 3 3 0 11 -7 18 -10 9 -11 8 -5 -6z"/>
<path d="M5308 1093 c7 -3 16 -2 19 1 4 3 -2 6 -13 5 -11 0 -14 -3 -6 -6z"/>
<path d="M5168 1083 c6 -2 18 -2 25 0 6 3 1 5 -13 5 -14 0 -19 -2 -12 -5z"/>
<path d="M5610 1020 c-6 -11 -8 -20 -6 -20 3 0 10 9 16 20 6 11 8 20 6 20 -3
0 -10 -9 -16 -20z"/>
<path d="M3170 916 c0 -9 5 -16 10 -16 6 0 10 4 10 9 0 6 -4 13 -10 16 -5 3
-10 -1 -10 -9z"/>
<path d="M6865 880 c-3 -5 -1 -10 4 -10 6 0 11 5 11 10 0 6 -2 10 -4 10 -3 0
-8 -4 -11 -10z"/>
<path d="M4773 583 c20 -2 54 -2 75 0 20 2 3 4 -38 4 -41 0 -58 -2 -37 -4z"/>
<path d="M4978 583 c12 -2 32 -2 45 0 12 2 2 4 -23 4 -25 0 -35 -2 -22 -4z"/>
<path d="M5128 583 c6 -2 18 -2 25 0 6 3 1 5 -13 5 -14 0 -19 -2 -12 -5z"/>
</g>
</svg>
